<svg xmlns="http://www.w3.org/2000/svg" id="4dd5dcbc-208e-41de-86c0-296b63d4ee96" viewBox="0 0 541 190">
  <defs>
    <style>
      .\32 0002113-82d6-4fbf-8206-f20f5133f477,.d42731ad-a47c-4f5a-b5ba-5fc7e5bd1e68{fill:#c28e0e}.\32 0002113-82d6-4fbf-8206-f20f5133f477{fill-rule:evenodd}
    </style>
  </defs>
  <title>Purdue Alumni Association, Purdue University, 150 Years of Giant Leaps</title>
  <path d="M1.5307 146.2035h168.3742v2.8743H1.5307zM15.5912 154.9715l3.0736 8.2851c2.0046 5.4343 3.9643 10.9584 5.657 15.4131 1.5148 3.9643 2.1384 4.2758 4.7222 4.5434v1.2473H17.3282v-1.2473l1.2473-.1777c1.693-.2676 1.7819-.713 1.2472-2.4055-.4454-1.3371-1.5143-4.0982-2.45-6.415H9.1319c-.5792 1.3363-1.381 3.8307-2.0046 5.702-.8019 2.3607-.4454 2.9398 1.5143 3.1625l1.2478.1337v1.2473H0v-1.2473c2.762-.3564 3.2518-.5342 4.8111-4.5434l8.9982-23.164zM9.6218 172.166h7.0828l-3.4745-9.8h-.1338zM43.3464 155.5057v1.2473c-3.5635.2676-3.92.623-3.92 5.4342v15.5019c0 2.5843.2672 3.8314 1.0246 4.3658a7.1903 7.1903 0 0 0 3.6528.624c2.049 0 4.187-.1787 5.1227-1.2921a13.5178 13.5178 0 0 0 2.1828-4.4996l1.4255.2676c-.2671 1.426-1.2473 5.9695-1.6037 7.3056H30.339v-1.2473c3.7422-.2676 4.0982-.624 4.0982-5.4342v-15.5917c0-4.8111-.356-5.1666-3.92-5.4342v-1.2473zM64.69 155.5057v1.2473c-3.2963.2676-3.6528.5342-3.6528 5.3454v9.3995c0 7.0829 2.3167 11.0472 7.5727 11.0472 5.3903 0 8.063-4.0982 8.063-11.894v-2.6721a69.1034 69.1034 0 0 0-.401-8.9093c-.2227-1.6037-1.47-2.139-4.321-2.3166v-1.2473h10.8692v1.2472c-2.2273.0888-3.3852.713-3.6083 2.3166a69.1818 69.1818 0 0 0-.401 8.9093v3.1625c0 4.3208-.8014 8.0176-3.2514 10.6459a11.3534 11.3534 0 0 1-8.2412 3.3412 12.3458 12.3458 0 0 1-7.9292-2.3607c-2.3606-1.9152-3.3407-5.1227-3.3407-10.3792v-10.2902c0-4.8112-.3565-5.0778-3.9204-5.3454v-1.2473zM93.3368 155.5057l9.8449 21.2486 9.3097-21.2486h8.42v1.2473c-3.6088.3564-3.7875.5342-3.6977 5.4342l.4454 15.5917c.1329 4.989.2676 5.0778 3.8754 5.4342v1.2473h-12.4282v-1.2473c3.474-.3564 3.6079-.4453 3.564-5.4342l-.1788-17.1055h-.1787l-10.1106 23.2528h-1.337l-9.756-22.3622h-.1779l-.3115 11.5376a60.6165 60.6165 0 0 0 .1338 7.795c.1777 1.6926 1.1134 2.049 4.0532 2.3166v1.2472h-10.557v-1.2472c2.2273-.1778 3.1185-.624 3.4292-2.3166a74.362 74.362 0 0 0 .8027-8.2403l.4903-9.1769c.3106-5.9245 0-6.37-3.8314-6.7264v-1.2472zM130.805 155.5057l17.7736 20.9362h.0889v-8.463a68.977 68.977 0 0 0-.4014-8.9093c-.2226-1.6037-1.469-2.139-4.3209-2.3166v-1.2473h10.8696v1.2473c-2.2278.0888-3.3852.713-3.608 2.3166a68.979 68.979 0 0 0-.4013 8.9093v16.838h-2.0491l-18.3529-22.4509h-.0888v9.6212a69.2455 69.2455 0 0 0 .4004 8.9094c.2228 1.6036 1.4709 2.1388 4.3209 2.3166v1.2472h-10.8685v-1.2472c2.2268-.0889 3.3852-.713 3.6079-2.3167a69.238 69.238 0 0 0 .4004-8.9093v-8.7305c0-5.1676-.9787-6.236-4.6315-6.5037v-1.2472zM169.786 155.5057v1.2473c-3.3852.2676-3.7416.623-3.7416 5.4342v15.5918c0 4.8102.3564 5.1666 3.7416 5.4342v1.2472h-12.562v-1.2472c3.475-.2676 3.8306-.624 3.8306-5.4342v-15.5918c0-4.8111-.3555-5.1666-3.8306-5.4342v-1.2473zM175.6414 180.3706v.6952h-1.3436v3.5069h-.8337v-3.5069h-1.3286v-.6952zm4.5416 4.202l-.1543-2.4737c-.015-.322-.015-.7252-.029-1.1715h-.0477c-.1076.3687-.248.8627-.3556 1.249l-.7569 2.3345h-.8646l-.7569-2.3953c-.0786-.3096-.2002-.8195-.2929-1.1882h-.0467c0 .3854-.0179.7869-.0309 1.1715l-.1544 2.4738h-.8037l.3097-4.202h1.251l.725 2.0537c.1096.3238.1703.6326.2789 1.0667h.0159c.1066-.3705.1993-.743.292-1.0349l.727-2.0856h1.204l.3257 4.202z"/>
  <path d="M65.707 29.9226v31.1385h45.5579l10.4371-9.3991V39.637l-10.4053-9.6592zM19.9229 4.2048h105.9878l25.6022 25.7178v31.1385l-25.6022 25.4001-60.2606.1469v19.7198h16.1203V129.94l-61.8475-.028v-23.526h16.5489V29.9225l-16.549.0552z" class="20002113-82d6-4fbf-8206-f20f5133f477"/>
  <path d="M316.387 166.9845a12.2402 12.2402 0 0 1 2.681-.2766 4.9785 4.9785 0 0 1 3.5755 1.0841 4.1448 4.1448 0 0 1 1.149 3.0654 4.6582 4.6582 0 0 1-1.0646 3.2133 4.606 4.606 0 0 1-3.447 1.4684h-.6387v5.575h-2.2552zm2.2552 6.6811a2.2473 2.2473 0 0 0 .5544.0428c1.4891 0 2.3187-1.0217 2.3187-2.681 0-1.3411-.553-2.468-2.085-2.468a2.7232 2.7232 0 0 0-.7881.1051zM332.4277 166.7716v9.4478c0 2.32.7231 3.064 1.6384 3.064.979 0 1.6385-.7232 1.6385-3.064v-9.4478h2.2772v9.0648c0 3.7028-1.4476 5.4477-3.9377 5.4477-2.6174 0-3.8937-1.7657-3.8937-5.3412v-9.1713zM345.1252 166.9845a12.208 12.208 0 0 1 2.7446-.2766 5.0685 5.0685 0 0 1 3.5548 1.0426 4.1902 4.1902 0 0 1-1.1711 6.5331v.0415c1.001.3623 1.532 1.3204 1.8085 3.0225a22.6718 22.6718 0 0 0 .8946 3.7664h-2.363a19.3716 19.3716 0 0 1-.7439-3.4898c-.2765-1.8514-.8088-2.4681-1.937-2.4681h-.5324v5.958h-2.2551zm2.2551 6.4266h.596a2.2645 2.2645 0 0 0 2.2136-2.533c0-1.4047-.5531-2.3616-2.0423-2.3837a2.7298 2.7298 0 0 0-.7673.0857zM359.2067 166.9845a10.7655 10.7655 0 0 1 2.5537-.2766 5.2 5.2 0 0 1 3.7028 1.1906c1.1698 1.0438 1.8943 2.916 1.8943 5.7892 0 3.0848-.766 4.9998-1.8735 6.0644a5.5832 5.5832 0 0 1-4.1923 1.4684 17.3556 17.3556 0 0 1-2.085-.1493zm2.2551 12.321a2.6122 2.6122 0 0 0 .5544.0428c1.5528 0 3.0004-1.3203 3.0004-5.6827 0-3.2549-.9374-5.1283-2.894-5.1283a3.2346 3.2346 0 0 0-.6608.0636zM376.0964 166.7716v9.4478c0 2.32.7231 3.064 1.6385 3.064.9789 0 1.6384-.7232 1.6384-3.064v-9.4478h2.2773v9.0648c0 3.7028-1.4476 5.4477-3.9378 5.4477-2.6174 0-3.8937-1.7657-3.8937-5.3412v-9.1713zM394.4753 174.581h-3.4042v4.5544h3.8729v1.9786h-6.1501v-14.3424h5.8943v1.9786h-3.617v3.9365h3.4041zM411.726 166.7716v9.4478c0 2.32.7232 3.064 1.6385 3.064.9789 0 1.6384-.7232 1.6384-3.064v-9.4478h2.2773v9.0648c0 3.7028-1.4476 5.4477-3.9378 5.4477-2.6174 0-3.8936-1.7657-3.8936-5.3412v-9.1713zM424.4235 181.114v-14.3424h2.1071l2.4045 6.128c.4895 1.2983 1.2126 3.1497 1.6593 4.5324h.0428c-.1065-1.8293-.2337-4.043-.2337-6.6175v-4.043h2.0007v14.3425h-2.1072l-2.4265-6.1073a47.4218 47.4218 0 0 1-1.5528-4.5544h-.0429c.0857 1.6605.1701 3.682.1701 6.6616v4.0001zM441.8455 166.7716v14.3424h-2.2772v-14.3424zM451.2064 181.114l-3.2354-14.3424h2.4902l1.1918 6.4266c.2765 1.5749.6375 3.4678.8504 5.2127h.0636c.1922-1.7657.5116-3.5963.7881-5.2555l1.1698-6.3838h2.4694l-3.3199 14.3424zM468.7336 174.581h-3.4042v4.5544h3.8729v1.9786h-6.1501v-14.3424h5.8943v1.9786h-3.6171v3.9365h3.4042zM475.7302 166.9845a12.208 12.208 0 0 1 2.7446-.2766 5.0686 5.0686 0 0 1 3.5548 1.0426 4.1902 4.1902 0 0 1-1.171 6.5331v.0415c1.001.3623 1.532 1.3204 1.8085 3.0225a22.6704 22.6704 0 0 0 .8945 3.7664h-2.363a19.3704 19.3704 0 0 1-.7439-3.4898c-.2765-1.8514-.8088-2.4681-1.937-2.4681h-.5323v5.958h-2.2552zm2.2551 6.4266h.596a2.2645 2.2645 0 0 0 2.2136-2.533c0-1.4047-.553-2.3616-2.0422-2.3837a2.7298 2.7298 0 0 0-.7673.0857zM489.513 178.6875a4.868 4.868 0 0 0 2.2137.5751 1.9383 1.9383 0 0 0 2.1708-2.0007c0-1.149-.7024-1.8085-1.8735-2.6174a5.0786 5.0786 0 0 1-2.7018-4 3.8725 3.8725 0 0 1 4.1923-4.0015 4.5807 4.5807 0 0 1 2.1487.5116l-.4259 1.9578a3.2273 3.2273 0 0 0-1.7657-.4894 1.746 1.746 0 0 0-1.915 1.7449c0 1.1062.5739 1.6164 2.0423 2.5538a4.7967 4.7967 0 0 1 2.533 4.1065 4.0847 4.0847 0 0 1-4.4052 4.213 5.4041 5.4041 0 0 1-2.5966-.5959zM504.8513 166.7716v14.3424h-2.2772v-14.3424zM513.6578 168.8567h-2.5746v-2.0851h7.4485v2.085h-2.5967v12.2574h-2.2772zM527.1434 181.114v-5.745l-3.1498-8.5974h2.4266l1.1062 3.4898c.2986.9569.618 2.0644.8945 3.1497h.0415c.213-1.0853.5116-2.15.831-3.2133l1.0204-3.4262h2.363l-3.2562 8.5117v5.8307zM350.565 101.3249V10.3252h-27.1864c-2.2747 7.8479-13.764 15.5827-29.2338 15.5827v20.5882H314.62v54.8288zm94.4936-28.3244c0-17.9732-12.513-30.7135-34.5796-30.7135-9.2132 0-13.8784 1.8214-18.9955 5.0055l.682-10.806h31.1668c11.8296 0 18.3135-11.2606 18.3135-26.1613h-82.2399l-2.958 48.7982 35.602 2.502c1.481-2.3904 4.7794-3.8687 8.4181-3.8687a9.4447 9.4447 0 1 1-9.6679 10.2383h-35.8306v1.707c0 16.8352 16.266 33.8976 45.1582 33.8976 27.528 0 44.9308-12.7403 44.9308-30.5991"/>
  <path d="M330.8745 155.79l-.8508-1.5887a9.2513 9.2513 0 0 1-5.7859 2.155c-5.7313 0-9.6453-3.801-9.6453-8.906v-28.706c0-4.596 4.7076-8.9075 10.6663-8.9075 6.0132 0 10.778 4.3114 10.778 8.9074v9.3037h-8.9632v-9.0777c0-.795-.795-1.3627-1.8148-1.3627-.9652 0-1.7589.5677-1.7589 1.3627v28.8762a1.6141 1.6141 0 0 0 1.759 1.3627c1.0197 0 1.8147-.6249 1.8147-1.3627v-7.6578h-1.8148v-6.5822h11.0626V155.79zM339.3035 110.4032h9.0776V155.79h-9.0776zM361.901 125.7227l-1.7016 14.9193h2.8357zm2.2123 30.0673l-.5663-7.0927h-4.0855l-.8509 7.0927h-8.0565l6.0145-45.3868h10.8351l6.1276 45.3868zM391.101 155.79l-7.659-23.09v23.09h-7.602v-45.387h8.284l7.318 23.488v-23.488h7.603v45.387h-7.944zM416.54 118.177v37.613h-9.076v-37.613h-6.185v-7.774h21.161v7.774h-5.9z" class="d42731ad-a47c-4f5a-b5ba-5fc7e5bd1e68"/>
  <path d="M424.647 155.79v-45.387h9.135v37.33h8.736v8.057h-17.871zM444.877 155.79v-45.387h17.871v7.489h-8.793v10.326h5.786v8.055h-5.786v11.46h8.793v8.057h-17.871zM475.7923 125.7227l-1.7018 14.9193h2.8358zm2.211 30.0673l-.5677-7.0927h-4.0842l-.8509 7.0927h-8.0553l6.0132-45.3868h10.8366l6.1262 45.3868zM501.7017 120.2749c0-1.3055-.5677-1.8147-1.5887-1.8147h-1.2484v12.0822h1.2484c1.021 0 1.5887-.5092 1.5887-1.8147zm-.7937 18.3241h-2.0435v17.1914h-9.1334v-45.3868h11.1769c4.3673 0 9.5868 2.4954 9.5868 8.2826v11.6315c0 5.7859-5.2195 8.2813-9.5868 8.2813M523.8052 156.356c-6.9226 0-11.6862-4.3115-11.6862-8.9061v-6.0717h8.5073v4.257a2.6966 2.6966 0 0 0 2.78 2.9488c1.7017 0 2.498-.964 2.498-2.9488 0-3.7451-2.4396-6.8096-6.412-10.7235-4.0841-4.0842-6.864-8.8503-6.864-14.0127 0-6.1834 4.0841-11.0625 11.4042-11.0625 6.0119 0 10.665 4.3115 10.665 8.9061v6.0704h-8.5671v-4.596c0-1.5874-.908-2.6098-2.098-2.6098a2.491 2.491 0 0 0-2.3836 2.6098c0 3.406.9651 4.5388 5.504 9.8713 3.6295 4.2556 7.7708 8.7373 7.7708 15.2052a10.7685 10.7685 0 0 1-11.1184 11.0625M537.4865 110.4472l.8004 2.2415.803-2.2415h.8908v3.1296h-.5744v-2.5247l-.8655 2.5247h-.5012l-.8734-2.5247v2.5247h-.5744v-3.1296zm-4.092.5225v-.5225h2.667v.5225h-1.0238v2.607h-.6195v-2.607zM493.7944 8.0492c-26.0483 0-47.2069 21.386-47.2069 47.7746 0 26.39 21.1586 47.776 47.207 47.776S541 82.2138 541 55.8238c0-26.3887-21.1572-47.7746-47.2056-47.7746zm-2.6013 27.781h5.2763l2.9563 21.195h-4.557l-.226-2.7822h-2.115l-.3284 2.7822h-3.921zM474.389 47.8851v9.1401h-4.413v-9.1401l-3.8599-12.0548h4.5376l1.806 7.0732 1.6008-7.0732h4.3533zm4.696-12.0548h8.6844V39.99h-4.2701v4.1598h2.8121v4.026h-2.8121v4.3987h4.2701v4.4506h-8.6844zm16.0484 40.7722c0 2.8874-3.2938 5.2452-7.725 5.2452s-7.725-2.3578-7.725-5.2452v-11.764c0-2.8875 3.2939-5.2452 7.725-5.2452s7.725 2.3577 7.725 5.2452zm14.2542-12.3197h-6.0631v4.4246h4.5181v4.1858h-4.5181v8.4248h-6.2683V60.123h12.3314zm-2.3292-7.2576a10.4836 10.4836 0 0 1-.5543-3.2847V49.978c0-.4765-.3077-1.1126-.9231-1.1126h-1.0062v8.1598h-4.4143v-21.195h6.2618a4.203 4.203 0 0 1 4.126 4.3975v3.8157a3.1022 3.1022 0 0 1-1.7034 2.729 3.229 3.229 0 0 1 1.7865 2.755v3.9482a12.9337 12.9337 0 0 0 .5738 3.5496zm9.9321.5297c-3.3665 0-5.3996-1.9604-5.3996-5.2451v-2.411h3.8598v1.828a1.2837 1.2837 0 0 0 1.3347 1.4034c.8413 0 1.2321-.4764 1.2321-1.3775 0-1.7488-1.027-2.411-3.347-4.2922a8.0837 8.0837 0 0 1-2.9563-6.4643c0-2.8874 1.8268-5.6957 5.3997-5.6957a4.9738 4.9738 0 0 1 4.9063 5.2452v2.146h-3.8598V40.943a1.1022 1.1022 0 0 0-1.0465-1.2178 1.1704 1.1704 0 0 0-1.171 1.245c0 2.119.5751 2.4643 2.916 4.1066a8.3542 8.3542 0 0 1 3.3872 6.7824c0 2.9134-1.8682 5.6957-5.2555 5.6957z"/>
  <path d="M505.642 40.1225h-1.0672v4.7155h1.0672c.4934 0 .7595-.2389.7595-.8478v-3.02c0-.6101-.2661-.8477-.7595-.8477zM487.4085 64.2828c-.7297 0-1.3126.344-1.3126.901V76.257c0 .557.583.901 1.3126.901.7284 0 1.3113-.344 1.3113-.901V65.1838c0-.557-.583-.901-1.3113-.901zM493.698 42.984l-.677 6.702h1.252l-.575-6.702zM241.3271-.4058h1.1113v190.145h-1.1113z"/>
</svg>