<svg xmlns="http://www.w3.org/2000/svg" id="c6bd6bef-6297-44d6-8cd2-faadb88d5657" viewBox="0 0 594 113">
  <defs>
    <style>
      .\30 caf0202-96b3-4b00-aed7-3035b8740e3a,.\38 efeb6cb-f936-472c-bed1-3583a80f689e{fill:#c28e0e}.\30 caf0202-96b3-4b00-aed7-3035b8740e3a{fill-rule:evenodd}
    </style>
  </defs>
  <title>Purdue Alumni Association, Purdue University, 150 Years of Giant Leaps</title>
  <path d="M459.9202 99.6692a7.3064 7.3064 0 0 1 1.6004-.1651 2.9719 2.9719 0 0 1 2.1344.6471 2.4742 2.4742 0 0 1 .6859 1.8298 2.7807 2.7807 0 0 1-.6355 1.9182 2.7495 2.7495 0 0 1-2.0577.8765h-.3813v3.328h-1.3462zm1.3462 3.9882a1.3411 1.3411 0 0 0 .331.0256c.8889 0 1.3841-.61 1.3841-1.6004 0-.8006-.3301-1.4733-1.2447-1.4733a1.6258 1.6258 0 0 0-.4704.0627zM469.4955 99.542v5.6398c0 1.385.4317 1.829.978 1.829.5844 0 .9781-.4317.9781-1.829v-5.6397h1.3594v5.4111c0 2.2103-.8641 3.252-2.3506 3.252-1.5624 0-2.3243-1.054-2.3243-3.1885v-5.4746zM477.075 99.6692a7.2874 7.2874 0 0 1 1.6385-.1651 3.0256 3.0256 0 0 1 2.122.6223 2.5013 2.5013 0 0 1-.6991 3.8999v.0248c.5975.2162.9145.7882 1.0796 1.8042a13.5327 13.5327 0 0 0 .534 2.2483h-1.4105a11.5639 11.5639 0 0 1-.4441-2.0832c-.1651-1.1052-.4828-1.4733-1.1563-1.4733h-.3178v3.5565h-1.3462zm1.3463 3.8363h.3557a1.3518 1.3518 0 0 0 1.3214-1.512c0-.8386-.3302-1.4098-1.2191-1.423a1.6294 1.6294 0 0 0-.458.0512zM485.4808 99.6692a6.4262 6.4262 0 0 1 1.5245-.1651 3.104 3.104 0 0 1 2.2103.7107 4.4656 4.4656 0 0 1 1.1308 3.4558 4.87 4.87 0 0 1-1.1184 3.62 3.3328 3.3328 0 0 1-2.5025.8766 10.3596 10.3596 0 0 1-1.2447-.0892zm1.3462 7.3548a1.5595 1.5595 0 0 0 .331.0256c.9269 0 1.791-.7882 1.791-3.3922 0-1.943-.5596-3.0613-1.7275-3.0613a1.9306 1.9306 0 0 0-.3945.038zM495.563 99.542v5.6398c0 1.385.4317 1.829.978 1.829.5844 0 .9781-.4317.9781-1.829v-5.6397h1.3594v5.4111c0 2.2103-.8641 3.252-2.3506 3.252-1.5624 0-2.3243-1.054-2.3243-3.1885v-5.4746zM506.534 104.2038h-2.032v2.7187h2.3118v1.1811h-3.6712v-8.5615h3.5185v1.181h-2.1592v2.3499h2.0321zM516.8316 99.542v5.6398c0 1.385.4317 1.829.978 1.829.5844 0 .9781-.4317.9781-1.829v-5.6397h1.3594v5.4111c0 2.2103-.8642 3.252-2.3506 3.252-1.5625 0-2.3243-1.054-2.3243-3.1885v-5.4746zM524.4112 108.1036v-8.5615h1.2578l1.4353 3.658c.2922.775.7239 1.8802.9905 2.7056h.0256c-.0636-1.092-.1395-2.4134-.1395-3.9502V99.542h1.1942v8.5615h-1.2578l-1.4485-3.6456a28.3085 28.3085 0 0 1-.9269-2.7188h-.0256c.0512.9913.1016 2.198.1016 3.9766v2.3878zM534.811 99.542v8.5616h-1.3594v-8.5615zM540.3989 108.1036l-1.9314-8.5615h1.4865l.7115 3.8363c.165.94.3805 2.07.5076 3.1116h.038c.1147-1.054.3053-2.1467.4704-3.1372l.6983-3.8107h1.474l-1.9816 8.5615zM550.8615 104.2038h-2.032v2.7187h2.3118v1.1811H547.47v-8.5615h3.5185v1.181h-2.1592v2.3499h2.0321zM555.038 99.6692a7.2874 7.2874 0 0 1 1.6384-.1651 3.0256 3.0256 0 0 1 2.122.6223 2.5013 2.5013 0 0 1-.699 3.8999v.0248c.5974.2162.9144.7882 1.0795 1.8042a13.5338 13.5338 0 0 0 .534 2.2483h-1.4105a11.5639 11.5639 0 0 1-.4441-2.0832c-.165-1.1052-.4828-1.4733-1.1563-1.4733h-.3178v3.5565h-1.3462zm1.3462 3.8363h.3558a1.3518 1.3518 0 0 0 1.3214-1.512c0-.8386-.3302-1.4098-1.2191-1.423a1.6294 1.6294 0 0 0-.458.0512zM563.2655 106.6551a2.9058 2.9058 0 0 0 1.3214.3433 1.157 1.157 0 0 0 1.2959-1.1942c0-.686-.4193-1.0796-1.1184-1.5625a3.0316 3.0316 0 0 1-1.6128-2.3878 2.3117 2.3117 0 0 1 2.5025-2.3886 2.7345 2.7345 0 0 1 1.2827.3054l-.2542 1.1687a1.9264 1.9264 0 0 0-1.054-.2922 1.0422 1.0422 0 0 0-1.1432 1.0417c0 .6603.3426.9648 1.2191 1.5244a2.8633 2.8633 0 0 1 1.512 2.4514 2.4383 2.4383 0 0 1-2.6296 2.5149 3.226 3.226 0 0 1-1.55-.3558zM572.4215 99.542v8.5616h-1.3593v-8.5615zM577.6784 100.7867h-1.5368v-1.2446h4.4462v1.2446h-1.55v7.317h-1.3594zM585.7285 108.1036v-3.4294l-1.8802-5.1321h1.4485l.6603 2.0832c.1782.5712.3689 1.2323.534 1.8802h.0248c.127-.648.3053-1.2834.496-1.9182l.6091-2.0452h1.4106l-1.9438 5.081v3.4806zM480.3223 60.4745V6.1535h-16.2285c-1.358 4.6847-8.2163 9.3019-17.4507 9.3019v12.2898h12.2224v32.7293zm56.4067-16.9078c0-10.7289-7.4695-18.334-20.6418-18.334-5.4998 0-8.2846 1.0872-11.3392 2.9879l.4072-6.4505h18.6046c7.0615 0 10.932-6.7219 10.932-15.6166h-49.092L483.834 35.283l21.2521 1.4936a5.8718 5.8718 0 0 1 5.0251-2.3094 5.638 5.638 0 1 1-5.7711 6.1116h-21.3886v1.019c0 10.0494 9.7099 20.2346 26.9566 20.2346 16.4325 0 26.8209-7.6051 26.8209-18.2657"/>
  <path d="M468.5684 92.9868l-.508-.9484a5.5225 5.5225 0 0 1-3.4537 1.2865c-3.4213 0-5.7577-2.269-5.7577-5.3164V70.8728c0-2.7435 2.8102-5.3172 6.3671-5.3172 3.5895 0 6.4338 2.5737 6.4338 5.3172v5.5537h-5.3505v-5.4188c0-.4746-.4746-.8134-1.0833-.8134-.5761 0-1.05.3388-1.05.8134V88.245a.9635.9635 0 0 0 1.05.8135c.6087 0 1.0833-.373 1.0833-.8135v-4.5712h-1.0833v-3.9292h6.6037v13.2422zM473.5999 65.8937h5.4188v27.0931h-5.4188zM487.0893 75.0385l-1.0159 8.9059h1.6928zm1.3205 17.9483l-.338-4.234h-2.4388l-.5079 4.234h-4.8093l3.5903-27.0931h6.4679l3.6578 27.093zM504.52 92.987l-4.572-13.784v13.784h-4.538V65.894h4.945l4.368 14.02v-14.02h4.539v27.093h-4.742zM519.705 70.534v22.453h-5.418V70.534h-3.692v-4.64h12.632v4.64h-3.522z" class="8efeb6cb-f936-472c-bed1-3583a80f689e"/>
  <path d="M524.545 92.987V65.894h5.453v22.284h5.214v4.809h-10.667zM536.621 92.987V65.894h10.668v4.47h-5.249v6.164h3.453v4.809h-3.453v6.841h5.249v4.809h-10.668zM555.075 75.0385l-1.0157 8.9059h1.6927zm1.3199 17.9483l-.3389-4.234h-2.438l-.508 4.234h-4.8084l3.5895-27.0931h6.4687l3.657 27.093zM570.5414 71.7865c0-.7793-.3389-1.0833-.9484-1.0833h-.7452v7.2124h.7452c.6095 0 .9484-.304.9484-1.0833zm-.4738 10.9383h-1.2198V92.987h-5.4521V65.894h6.672c2.607 0 5.7227 1.4895 5.7227 4.9441v6.9433c0 3.4538-3.1158 4.9434-5.7228 4.9434M583.7358 93.3246c-4.1324 0-6.976-2.5737-6.976-5.3164v-3.6244h5.0784v2.5412a1.6097 1.6097 0 0 0 1.6594 1.7602c1.0159 0 1.4913-.5754 1.4913-1.7602 0-2.2356-1.4563-4.0649-3.8276-6.4013-2.438-2.438-4.0975-5.283-4.0975-8.3646 0-3.6911 2.438-6.6037 6.8076-6.6037 3.5888 0 6.3664 2.5737 6.3664 5.3164v3.6237h-5.114v-2.7436c0-.9476-.542-1.5579-1.2524-1.5579a1.487 1.487 0 0 0-1.4229 1.5579c0 2.0332.5761 2.7094 3.2855 5.8926 2.1666 2.5403 4.6387 5.2156 4.6387 9.0765a6.4281 6.4281 0 0 1-6.637 6.6036M591.9027 65.92l.4778 1.338.4793-1.338h.5317v1.8682h-.3428V66.281l-.5167 1.507h-.2992l-.5214-1.507v1.507h-.3428V65.92zm-2.4427.3119V65.92h1.592v.3119h-.6111v1.5563h-.3699v-1.5563z"/>
  <path d="M565.8212 4.7949A28.5209 28.5209 0 1 0 594 33.3133a28.358 28.358 0 0 0-28.1788-28.5184zm-1.5528 16.5835h3.1497l1.7647 12.652h-2.7203l-.1349-1.6609h-1.2625l-.196 1.6609h-2.3406zm-10.031 7.196v5.456h-2.6342v-5.456l-2.3041-7.196h2.7086l1.078 4.2222.9556-4.2222h2.5987zm2.8032-7.196h5.184v2.4831h-2.549v2.4832h1.6787v2.4033h-1.6786v2.6257h2.549v2.6567h-5.184zm9.58 24.3384c0 1.7236-1.9663 3.131-4.6114 3.131s-4.6113-1.4074-4.6113-3.131v-7.0223c0-1.7237 1.9662-3.1311 4.6113-3.1311s4.6113 1.4074 4.6113 3.131zm8.5088-7.354H571.51v2.6412h2.697v2.4986h-2.697v5.029h-3.7418v-12.652h7.361zm-1.3904-4.3324a6.2582 6.2582 0 0 1-.331-1.9607v-2.246c0-.2845-.1836-.6642-.551-.6642h-.6006v4.871h-2.635v-12.652h3.738a2.509 2.509 0 0 1 2.463 2.625v2.2776a1.8518 1.8518 0 0 1-1.0169 1.629 1.9275 1.9275 0 0 1 1.0664 1.6446v2.3568a7.7203 7.7203 0 0 0 .3426 2.119zm5.9288.3162a2.9242 2.9242 0 0 1-3.2232-3.131v-1.4392h2.304v1.0912a.7663.7663 0 0 0 .7968.8378c.5022 0 .7355-.2844.7355-.8223 0-1.044-.613-1.4392-1.998-2.5622a4.8255 4.8255 0 0 1-1.7647-3.8588 3.1868 3.1868 0 0 1 3.2232-3.4 2.969 2.969 0 0 1 2.9288 3.131v1.2811h-2.3041v-1.0438a.658.658 0 0 0-.6247-.727.6986.6986 0 0 0-.699.7432c0 1.2648.3433 1.471 1.7407 2.4514a4.987 4.987 0 0 1 2.022 4.0486 3.1759 3.1759 0 0 1-3.1372 3.4z"/>
  <path d="M572.8935 23.9406h-.637v2.8148h.637c.2945 0 .4534-.1426.4534-.506v-1.8027c0-.3643-.1589-.5061-.4534-.5061zM562.0093 38.3627c-.4356 0-.7836.2054-.7836.5379v6.61c0 .3325.348.538.7836.538.4347 0 .7827-.2055.7827-.538v-6.61c0-.3325-.348-.5379-.7827-.5379zM565.763 25.649l-.403 4h.747l-.344-4z"/>
  <path d="M175.3085 34.444v20.5517h30.0675l6.888-6.2032v-7.9362l-6.868-6.3748zM145.092 17.4714h69.9494l16.8967 16.9726v20.5517l-16.8967 16.7635-39.7704.0968v13.0145h10.6388v15.5839l-40.8178-.0183V84.9089h10.922V34.444l-10.922.0375z" class="0caf0202-96b3-4b00-aed7-3035b8740e3a"/>
  <path d="M9.023 47.9182c2.6158 0 4.604.4187 5.9996 1.3951a5.5354 5.5354 0 0 1 2.3716 4.9182c0 4.4301-3.523 6.6972-6.9062 7.1158a13.451 13.451 0 0 1-1.6047.0698l-2.337-.6277v4.5693c0 3.7672.279 4.0462 3.4879 4.2557v.9765H-.2206v-.9765c2.651-.2095 2.93-.4885 2.93-4.2557V53.1504c0-3.7672-.279-4.0461-2.7903-4.2556v-.9766zM6.5464 59.429a5.741 5.741 0 0 0 2.1278.4186c1.465 0 4.4648-.9765 4.4648-5.581 0-3.5928-1.9534-5.0231-4.8834-5.0231-1.6745 0-1.7092.2095-1.7092 1.256zM27.0876 47.9182v.9766c-2.5812.2095-2.8606.4185-2.8606 4.1858v7.36c0 5.5458 1.8142 8.6506 5.9298 8.6506 4.221 0 6.3137-3.2093 6.3137-9.3135V57.685a54.0921 54.0921 0 0 0-.314-6.9766c-.1744-1.2554-1.151-1.674-3.3834-1.8137v-.9765h8.511v.9765c-1.744.0698-2.651.5583-2.8254 1.8137a54.2133 54.2133 0 0 0-.3137 6.9766v2.4767c0 3.3832-.6281 6.2785-2.5465 8.3366a8.8922 8.8922 0 0 1-6.4528 2.6158 9.6708 9.6708 0 0 1-6.2093-1.8484c-1.8484-1.5001-2.6158-4.0115-2.6158-8.1275v-8.0576c0-3.7673-.279-3.9763-3.0697-4.1858v-.9766zM52.336 47.9182c2.5465 0 4.3602.279 5.7554 1.186a5.0907 5.0907 0 0 1 2.3022 4.4297c0 2.93-1.8137 4.988-4.6392 6.0348.5584.9765 1.9184 3.418 3.0345 4.9879a37.1903 37.1903 0 0 0 2.8953 3.8718 4.8271 4.8271 0 0 0 2.4068 1.6047l-.1392.9066-1.465-.0698c-3.8024-.279-4.9885-1.2555-6.3484-3.2089-1.1162-1.6047-2.2675-3.8371-3.2792-5.6509-.5578-.9764-.9765-1.3253-2.0228-1.3253H49.72v4.6739c0 3.7672.279 4.0462 2.93 4.2557v.9765h-9.8367v-.9765c2.7908-.2095 3.0697-.4885 3.0697-4.2557V53.1504c0-3.7672-.279-4.0461-2.93-4.2556v-.9766zm-2.6159 11.5806h1.3253a4.939 4.939 0 0 0 3.2787-.907 5.4901 5.4901 0 0 0 1.8837-4.4648 4.4837 4.4837 0 0 0-4.7438-4.8835c-1.674 0-1.7439.1397-1.7439 1.256zM75.5624 47.9182c3.9066 0 7.4642.8372 9.7665 3.0696a10.3528 10.3528 0 0 1 2.9299 7.2551c0 8.5808-6.6273 12.348-14.7894 12.348h-8.5457v-.9764c2.86-.2096 3.139-.4886 3.139-4.2558V53.1504c0-3.7672-.279-4.0461-2.86-4.2556v-.9766zm-3.5927 17.3707c0 3.2094.3487 3.8718 3.0345 3.8718 5.79 0 8.7898-4.0809 8.7898-9.8715 0-7.4645-3.7668-10.0457-9.3482-10.0457a5.3366 5.3366 0 0 0-2.267.3141c-.2091.1744-.2091.8021-.2091 1.7092zM98.3005 47.9182v.9766c-2.5812.2095-2.8606.4185-2.8606 4.1858v7.36c0 5.5458 1.8142 8.6506 5.9298 8.6506 4.221 0 6.3137-3.2093 6.3137-9.3135V57.685a54.0893 54.0893 0 0 0-.314-6.9766c-.1744-1.2554-1.151-1.674-3.3833-1.8137v-.9765h8.511v.9765c-1.744.0698-2.6511.5583-2.8255 1.8137a54.2113 54.2113 0 0 0-.3137 6.9766v2.4767c0 3.3832-.628 6.2785-2.5464 8.3366a8.8923 8.8923 0 0 1-6.453 2.6158 9.6707 9.6707 0 0 1-6.2092-1.8484c-1.8484-1.5002-2.6158-4.0116-2.6158-8.1275v-8.0576c0-3.7673-.279-3.9763-3.0697-4.1858v-.9766zM129.9325 47.9182c.0693.5579.209 3.1391.4185 5.302l-1.0467.0695a6.3819 6.3819 0 0 0-1.2906-3.1739c-.593-.593-1.7092-.8025-3.8718-.8025h-1.7439c-1.3258 0-1.3951 0-1.3951 1.256v7.3947h2.9998c2.9998 0 3.0692-.2096 3.418-2.8953h1.1161v7.3948h-1.1161c-.3489-2.7556-.4182-2.8948-3.418-2.8948h-2.9998v5.7202c0 2.0233.1392 2.9998.7674 3.4531a7.1106 7.1106 0 0 0 3.3486.4539c1.7439 0 3.3486-.1398 4.0808-1.0118a11.1444 11.1444 0 0 0 1.779-3.5229l1.0464.209c-.1397 1.186-.907 4.7442-1.186 5.7207h-17.0218v-.9765c2.9998-.2095 3.2787-.4885 3.2787-4.2557V53.1504c0-3.7672-.279-4.0461-2.93-4.2556v-.9766zM.0414 38.224h131.556v1.8699H.0414zM.0414 77.8328h131.556v1.8699H.0414zM254.926 47.4996l2.4068 6.488c1.5695 4.2553 3.1043 8.5809 4.4291 12.0686 1.187 3.1045 1.6745 3.3487 3.6979 3.5582v.9765h-9.1734v-.9765l.976-.1397c1.3258-.209 1.3952-.5583.977-1.8836-.3487-1.0463-1.186-3.209-1.9183-5.0226h-6.4525c-.4538 1.0463-1.0819 2.9998-1.5704 4.4648-.6282 1.8484-.3488 2.3017 1.186 2.4761l.977.105v.9765h-7.7436v-.9765c2.162-.2794 2.5456-.4186 3.7672-3.5582l7.045-18.138zm-4.674 13.4642h5.546l-2.721-7.6741h-.104zM276.6519 47.9182v.9766c-2.7903.2095-3.0697.4884-3.0697 4.2556v12.1385c0 2.0233.21 2.9998.8026 3.4184a5.6265 5.6265 0 0 0 2.8605.4886c1.6042 0 3.2788-.1398 4.011-1.0118a10.591 10.591 0 0 0 1.7093-3.5229l1.1166.209c-.21 1.1162-.977 4.6744-1.2563 5.7207h-16.359v-.9765c2.93-.2095 3.2093-.4885 3.2093-4.2557V53.1504c0-3.7672-.2794-4.0461-3.0696-4.2556v-.9766zM293.3587 47.9182v.9766c-2.5803.2095-2.8596.4185-2.8596 4.1858v7.36c0 5.5458 1.8133 8.6506 5.9293 8.6506 4.221 0 6.3137-3.2093 6.3137-9.3135V57.685a54.0865 54.0865 0 0 0-.314-6.9766c-.1745-1.2554-1.1514-1.674-3.383-1.8137v-.9765h8.5106v.9765c-1.744.0698-2.6506.5583-2.826 1.8137a54.3517 54.3517 0 0 0-.313 6.9766v2.4767c0 3.3832-.6282 6.2785-2.5466 8.3366a8.8933 8.8933 0 0 1-6.4533 2.6158 9.6691 9.6691 0 0 1-6.2087-1.8484c-1.848-1.5002-2.616-4.0116-2.616-8.1275v-8.0576c0-3.7673-.2784-3.9763-3.0696-4.1858v-.9766zM315.7822 47.9182l7.7088 16.6384 7.2898-16.6384h6.5931v.9766c-2.826.2793-2.9647.4185-2.8953 4.2556l.3488 12.2083c.104 3.907.21 3.9764 3.035 4.2557v.9765h-9.7322v-.9765c2.721-.2793 2.826-.3487 2.7912-4.2557l-.1406-13.3943h-.1388l-7.918 18.208h-1.0463l-7.6394-17.5104h-.1397l-.2438 9.0341a47.074 47.074 0 0 0 .105 6.1046c.1389 1.3252.8711 1.6042 3.1737 1.8138v.9764h-8.2666v-.9764c1.7439-.1397 2.4415-.4886 2.6861-1.8138a58.8071 58.8071 0 0 0 .6273-6.4534l.3844-7.1852c.2429-4.6392 0-4.988-3.0003-5.2673v-.9766zM345.111 47.9182l13.9176 16.3942h.0694V57.685a53.9053 53.9053 0 0 0-.314-6.9766c-.1736-1.2554-1.1505-1.674-3.383-1.8137v-.9765h8.5105v.9765c-1.7439.0698-2.6505.5583-2.8249 1.8137a54.2492 54.2492 0 0 0-.3141 6.9766v13.1849h-1.6042l-14.3714-17.5802h-.0693v7.5345a54.3532 54.3532 0 0 0 .313 6.9765c.1754 1.2554 1.1524 1.674 3.3839 1.8137v.9765h-8.5106v-.9765c1.744-.0698 2.6506-.5583 2.825-1.8137a54.0787 54.0787 0 0 0 .3142-6.9765v-6.8365c0-4.0462-.768-4.8834-3.6276-5.093v-.9765zM375.6277 47.9182v.9766c-2.6514.2095-2.9309.4884-2.9309 4.2556v12.2083c0 3.7672.2795 4.0462 2.931 4.2557v.9765h-9.8373v-.9765c2.721-.2095 3.0003-.4885 3.0003-4.2557V53.1504c0-3.7672-.2793-4.0461-3.0003-4.2556v-.9766zM245.7782 38.224h131.5551v1.8699H245.7782zM245.7782 77.8328h131.5551v1.8699H245.7782zM380.7024 76.96v.4592h-.8866v2.3127h-.5496v-2.3127h-.8765v-.4593zm2.9957 2.772l-.1022-1.6317c-.0101-.2128-.0101-.4784-.0193-.7734h-.031a82.1618 82.1618 0 0 0-.2346.8246l-.4994 1.5393h-.5698l-.5003-1.5795c-.0511-.2046-.1315-.5405-.1927-.7844h-.031c0 .2548-.011.5196-.02.7734l-.1023 1.6316h-.5296l.2036-2.772h.8254l.4784 1.355c.0722.2136.1124.4172.1845.703h.01c.0703-.2438.1315-.4894.1927-.682l.4794-1.376h.7943l.2146 2.772zM415.1138-.2524h.6641v113.5049h-.6641z"/>
</svg>