<svg data-name="balfour-svg" xmlns="http://www.w3.org/2000/svg" viewBox="0 0 440.1539 193.8264">
  <title>Balfour</title>
  <path d="M0 8.0664c3.1843-.096 6.3681-.2386 9.5531-.2764 4.0563-.0482 8.1136-.0117 12.4272-.0117v50.7821c3.3052-1.3314 6.3404-3.2418 9.5939-3.7476 15.4194-2.397 24.86 3.3663 29.1205 18.3237a83.1967 83.1967 0 0 1 2.9724 20.9987c.3698 19.343.2073 38.6996-.007 58.048-.0748 6.7577-.4437 13.5682-3.2537 19.9551-4.7404 10.7746-13.026 17.0047-24.5255 18.69-10.784 1.5806-21.6655 1.3144-32.5272.6686-1.1154-.0664-2.2357-.049-3.3537-.0704zm22.0617 124.9403l-.0723-.0002c0 12.5503.0418 25.1009-.0444 37.6506-.0132 1.915.658 2.8043 2.4353 2.5115a81.8118 81.8118 0 0 0 10.4498-2.112 8.3752 8.3752 0 0 0 5.9735-7.1654 111.5675 111.5675 0 0 0 1.3762-14.5028q.238-26.9768-.0018-53.9567a104.9284 104.9284 0 0 0-1.3887-14.9874c-.7733-5.0113-4.1284-7.9421-8.3994-8.0556-4.19-.1113-7.5764 2.4694-8.4556 7.5724a123.5944 123.5944 0 0 0-1.7935 18.048c-.271 11.6602-.0791 23.3311-.0791 34.9976zM118.9939 105.8819c0-6.1174.617-12.56-.1858-18.8205-.7034-5.4841-5.0768-9.2698-9.1902-12.755-2.368-2.0064-4.9709-3.7354-7.6778-5.745l11.303-17.7896c3.5678 2.594 7.1192 4.8728 10.3224 7.5658 7.5842 6.3763 13.8082 13.83 16.1598 23.7273a48.3113 48.3113 0 0 1 .9861 10.6495c.1698 18.3855.2285 36.7722.28 55.1586.0384 13.753-.037 27.5064.0543 41.2588.014 2.1042-.5506 2.7771-2.6805 2.7002-11.0158-.3978-22.0451-.4892-33.0528-1.0314-13.9317-.6862-24.3207-10.3408-26.5232-24.1768a103.7474 103.7474 0 0 1 .9362-39.2736c2.813-12.5438 11.4656-19.6546 24.289-20.7545 4.985-.4276 10.0014-.4875 14.9795-.7138zm.1917 67.2725v-51.8485c-3.0835 0-6.0426-.1678-8.973.0504a7.5245 7.5245 0 0 0-6.1058 3.752 26.8798 26.8798 0 0 0-3.3391 7.0758 72.165 72.165 0 0 0-1.6997 12.2982c-.3873 6.9506-.3212 13.9291 2.051 20.6129 1.5533 4.3762 4.5691 7.3828 9.2847 7.9924a70.3056 70.3056 0 0 0 8.7819.0668zM180.4298 191.5523h-20.9063V7.2961h20.9063zM234.004 75.864h-13.8126v115.4333h-21.4528v-2.971c0-48.9547.0813-97.9096-.0618-146.8638-.0325-11.127 4.0178-20.3461 11.3103-28.3834A64.1757 64.1757 0 0 1 226.5568 0l11.132 17.4904a98.9296 98.9296 0 0 0-7.902 6.0032 58.0046 58.0046 0 0 0-6.8667 7.6213 14.4438 14.4438 0 0 0-2.7431 9.2353c.108 5.7369.0296 11.4772.0296 17.4757h13.7974zM268.8 193.8265c-1.7611-.4246-3.5233-.8447-5.2831-1.2743-11.4934-2.8056-17.8895-10.6212-19.8936-21.7599a148.4395 148.4395 0 0 1-2.0525-23.8052c-.274-16.9462-.2149-33.9036.0699-50.8503.1336-7.9502.6419-15.9414 3.6737-23.5167 3.7907-9.4712 10.865-14.7267 20.7339-16.3795a38.9518 38.9518 0 0 1 18.4936 1.0945c10.1574 3.2515 15.7876 10.7692 17.6142 20.8204a140.5248 140.5248 0 0 1 2.0356 22.8466q.3995 25.5353-.0998 51.0808a102.5356 102.5356 0 0 1-2.4148 20.86c-2.7034 11.6749-10.5033 18.439-22.4349 20.2845a22.0328 22.0328 0 0 0-2.2822.599zm-6.2552-67.7534l-.7682.0096c.393 11.8124.5828 23.637 1.2964 35.43a37.9496 37.9496 0 0 0 2.9204 11.1962c1.1138 2.8534 3.8216 4.259 6.9795 4.1536a7.5068 7.5068 0 0 0 7.0144-4.5911 19.5917 19.5917 0 0 0 1.789-6.3862c.5202-7.5624 1.05-15.1452 1.0342-22.719-.0395-18.9275-.2996-37.8559-.674-56.7799a26.1017 26.1017 0 0 0-1.8925-8.8042 7.9872 7.9872 0 0 0-11.722-3.982 9.7268 9.7268 0 0 0-4.5157 7.2954 114.11 114.11 0 0 0-1.3986 14.5c-.2068 10.2221-.063 20.4513-.063 30.6776zM348.48 193.8265c-1.7635-.4198-3.529-.8308-5.29-1.2606-11.6144-2.8346-17.952-10.8002-19.9069-22.0189a153.5322 153.5322 0 0 1-2.0368-24.5329c-.3194-28.2274-.2733-56.459-.3658-84.689-.0034-1.028-.0004-2.0559-.0004-3.2638h21.45v2.9338c-.0004 24.2325-.0658 48.4652.0334 72.6973.0357 8.7075.3648 17.4183.774 26.1176a45.4315 45.4315 0 0 0 1.4717 9.1824c1.0905 4.2095 4.2758 6.6209 8.0641 6.605 3.812-.016 6.8735-2.3974 7.8304-6.795a62.841 62.841 0 0 0 1.3582-11.1396c.3558-10.3044.6048-20.6167.6482-30.927.0925-21.9927.0285-43.9861.0287-65.9793v-2.7247h21.482c0 1.002.0012 1.8598-.0001 2.7176-.0452 28.2303.0822 56.4626-.239 84.6898a153.1549 153.1549 0 0 1-2.3398 26.1782c-2.3159 12.4413-10.2385 19.8345-23.0014 21.6429a11.2315 11.2315 0 0 0-1.8004.5663zM429.1364 50.7136l11.0175 17.2968c-3.8125 3.2194-7.6747 6.1745-11.1713 9.5124a19.502 19.502 0 0 0-6.2023 14.966c.1705 31.9007.0798 63.8028.0797 95.7045v3.0458h-21.4647v-2.9574c0-31.9016.1277-63.804-.0757-95.7043a39.6852 39.6852 0 0 1 9.1584-26.2636 66.2116 66.2116 0 0 1 18.6584-15.6002z"/>
</svg>