<svg xmlns="http://www.w3.org/2000/svg" id="3247d1b7-cb86-47dc-856f-6185a28605e2" data-name="liberty-mutual-insurance-svg" viewBox="0 0 183.9975 101.3965">
    <title>Liberty Mutual Insurance</title><defs>
    <style>
      .a4af221b-1c0d-41cb-9784-8eefc70a3ab0{fill:#003e7e}.\37 0e469d9-24f4-4ad2-b225-1547af76d64b{fill:#fff}
    </style>
  </defs>
  <path d="M100.0825 65.1826c0 1.773.7442 2.3252 3.4029 2.3252 2.6621 0 3.8833-.812 5.621-4.3979h.627l-.627 5.623H92.5786v-.6323c2.479-.6289 2.7339-1.185 2.7339-3.5117v-13.83c0-1.922-.478-2.4762-2.7339-3.0343v-.6269h10.2417v.627c-2.144.558-2.7378 1-2.7378 2.8891zM116.688 65.7358c0 1.4034.7021 2.1792 2.2544 2.3653v.6308h-8.7652v-.6308c1.8838-.3692 2.3301-.8902 2.3301-2.6602v-7.434c0-1.7027-.48-2.1832-2.5161-2.588v-.6328l6.0659-.5141h.6309zm-2.0718-20.1499a2.3967 2.3967 0 0 1 2.4028 2.398 2.4333 2.4333 0 0 1-2.4028 2.4443 2.467 2.467 0 0 1-2.4429-2.4443 2.4306 2.4306 0 0 1 2.4429-2.398M125.7842 57.7827c1.4053-1.291 2.1435-1.6626 3.2549-1.6626 2.4746 0 4.1377 2.3677 4.1377 5.77 0 4.5498-2.0713 6.396-5.1748 6.396-1.667 0-2.2178-.7373-2.2178-2.3291zm0-12.1968h-.6319l-5.6567.403v.6293c1.2949.2226 2.1079.8886 2.1079 2.0717v20.042a34.8453 34.8453 0 0 0 6.8037.549c6.8067 0 9.3907-3.545 9.3907-7.836 0-4.067-2.8829-7.21-6.6534-7.21a7.1501 7.1501 0 0 0-5.3603 2.5522zM143.9355 59.6704c.1124-2.664 1.2549-4.437 2.962-4.437 1.6953 0 2.955 1.8472 3.1015 4.437zm10.5752.8511a6.9807 6.9807 0 0 0-7.3193-6.286 7.5476 7.5476 0 0 0-7.7646 7.6161 7.3362 7.3362 0 0 0 7.6171 7.4301 7.8982 7.8982 0 0 0 7.4668-4.8422h-.625a5.7867 5.7867 0 0 1-4.9921 3.0322c-2.5918 0-5.1758-2.3672-4.9581-6.9502zM167.9004 59.6348c-1.2227-1.1822-2.1856-1.813-3.1455-1.813-1.2559 0-2.0332.5161-3.1045 1.9941v5.6987c0 1.6612.331 2.1773 2.3613 2.586v.6323h-8.873v-.6323c1.8535-.4458 2.3281-.9956 2.3281-2.586v-7.3618c0-1.7768-.7725-2.5859-2.5459-2.7339v-.6333l6.0947-.5498h.6348v4.4361h.0732c1.3682-3.0342 2.8819-4.436 4.6202-4.436a3.2454 3.2454 0 0 1 2.4765 1.183zM191.4473 54.7861v.6333c1.7734.3687 2.1816 1.4766.9238 4.4356l-1.9219 4.4721-2.959-6.101c-.8554-1.7749-.8554-2.5879.7373-2.8067v-.6333h-12.3564v-5.394h-.6982a26.3098 26.3098 0 0 1-5.9932 5.8042v.706h2.5137v8.9458c0 3.1783 2.1074 4.4331 4.7334 4.4331a4.6836 4.6836 0 0 0 4.4736-2.474l-.4424-.4058a2.6098 2.6098 0 0 1-2.0332 1.107c-1.9619 0-2.5537-1.3282-2.5537-3.585v-8.021h3.7422c2.0312 0 2.6269.7377 3.5137 2.621l5.1005 10.7578c-1.7002 4.586-3.1767 6.4336-5.7636 6.4336a5.1656 5.1656 0 0 1-1.8897-.328l-.8496 4.2157a7.1754 7.1754 0 0 0 1.1817.0743c2.8896 0 4.4765-1.2227 5.9531-4.624l7.0254-16.0494c1.1484-2.5849 1.5898-3.101 3.3632-3.584v-.6333zM119.8936 93.8164a3.5648 3.5648 0 0 0 3.291 3.3613v.627h-10.688v-.627c2.3681-.5859 2.7729-1.957 2.3681-4.7656l-1.7763-12.3555h-.0728l-7.0249 17.7481h-.7793l-6.9516-17.748h-.0743l-1.8857 12.7206c-.3711 2.5176.1118 4.2188 2.5498 4.4004v.627h-7.835v-.627c2.3257-.1045 3.3248-1.4423 3.8418-4.7656l2.147-14.125a4.7474 4.7474 0 0 0-3.1421-1.4844v-.625h7.7993l5.6587 14.2725 5.7305-14.2725h7.3228v.625c-2.2193.4073-2.7369 1.5176-2.4419 3.5157zM124.8809 86.9004c0-1.5527-.5205-2.1094-2.1827-2.4004v-.6367l5.7325-.5528h.6279v10.2813a2.294 2.294 0 0 0 2.5918 2.4385c1.4023 0 2.2539-.5889 3.4726-2.5147v-6.9492c0-1.1435-.7412-1.8105-2.1816-2.0664v-.6367l5.7305-.5528h.6299v11.0948c0 1.8486.374 2.293 2.2216 2.7724v.627l-6.4004.5537V94.961h-.0742c-1.5508 2.3653-3.292 3.3975-5.5468 3.3975-2.8858 0-4.6211-1.582-4.6211-4.252zM144.7383 84.9766h-2.5156v-.7012a26.2239 26.2239 0 0 0 5.9873-5.8067h.707v5.3956h4.5859v1.1123h-4.5859v8.0254c0 2.2568.5889 3.5898 2.5518 3.5898a2.6286 2.6286 0 0 0 2.0341-1.1143l.4366.4092a4.681 4.681 0 0 1-4.4717 2.4717c-2.626 0-4.7295-1.252-4.7295-4.4355zM156.1982 86.9004c0-1.5527-.5214-2.1094-2.1806-2.4004v-.6367l5.7304-.5528h.6338v10.2813a2.2889 2.2889 0 0 0 2.5811 2.4385c1.4062 0 2.2588-.5889 3.4766-2.5147v-6.9492c0-1.1435-.7374-1.8105-2.1807-2.0664v-.6367l5.7314-.5528h.627v11.0948c0 1.8486.373 2.293 2.2178 2.7724v.627l-6.3955.5537V94.961h-.0723c-1.5537 2.3653-3.2891 3.3975-5.5479 3.3975-2.8838 0-4.6211-1.582-4.6211-4.252zM182.377 95.4023a3.8594 3.8594 0 0 1-2.625 1.4434c-1.1456 0-1.9239-.998-1.9239-2.5117 0-1.8867 1.0694-2.7344 4.5489-4.2217zm4.2128-6.8759c0-3.8467-3.1416-5.2159-6.1367-5.2159a5.9765 5.9765 0 0 0-6.248 4.7344h.5566a4.48 4.48 0 0 1 4.1778-2.33c2.5136 0 3.4765 1.1855 3.4765 3.664-3.4062 1.252-8.9492 1.5547-8.9492 5.3213a3.9457 3.9457 0 0 0 4.1797 3.6592 6.0065 6.0065 0 0 0 4.3984-1.6612l.3321-.2929a3.2681 3.2681 0 0 0 3.3652 1.9541c2.0332 0 3.2529-.961 3.3994-2.6953h-.5908c-.1475.8515-.5205 1.2929-1.1065 1.2929-.6289 0-.8545-.5517-.8545-1.8427zM192.0293 78.4687c0-1.9589-.6309-2.6582-2.627-2.7753v-.623l6.1719-.4107h.6348v19.7465c0 1.8477.4062 2.293 2.4687 2.7706v.627h-9.2754v-.627c2.0372-.332 2.627-.9942 2.627-2.7706zM202.585 92.8682a2.4985 2.4985 0 1 1-2.4297 2.4961 2.4301 2.4301 0 0 1 2.4297-2.496m0 4.4481a1.9552 1.9552 0 1 0-1.8457-1.952 1.8616 1.8616 0 0 0 1.8457 1.952m-.9444-3.2627h1.0283c.6641 0 1.0225.2256 1.0225.794a.6774.6774 0 0 1-.6816.7304l.7295 1.1846h-.546l-.6777-1.168h-.3711v1.168h-.504zm.5039 1.1582h.4678c.3154 0 .5752-.04.5752-.4014 0-.3203-.3047-.371-.5693-.371h-.4737z" class="a4af221b-1c0d-41cb-9784-8eefc70a3ab0" transform="translate(-21.018 -20.2324)"/>
  <path d="M69.9961 83.7862h107.6635v.8837H69.9961z" class="a4af221b-1c0d-41cb-9784-8eefc70a3ab0"/>
  <path d="M106.6504 111.0918h1.9346v10.2773h-1.9346zM112.5576 111.0918h1.7759l4.3159 7.3184h.0288v-7.3184h1.7613v10.2773h-1.7759l-4.3159-7.3173h-.0289v7.3173h-1.7612zM125.0215 118.2812a3.5914 3.5914 0 0 0 3.1025 1.5586c.9395 0 2.1807-.3183 2.1807-1.3134 0-.8086-.751-1.04-2.1231-1.3575l-1.1396-.2597c-1.6455-.375-3.0889-.9815-3.0889-2.872 0-2.165 2.0645-3.2052 3.9834-3.2052a5.0861 5.0861 0 0 1 4.2871 2.0645l-1.6015 1.213a2.8763 2.8763 0 0 0-2.6992-1.4874c-1.1124 0-1.9493.4189-1.9493 1.1406 0 .8516.9668 1.0537 2.1221 1.3135l1.2559.2734c1.5302.332 2.9736.9531 2.9736 2.9024 0 2.5117-2.3672 3.377-4.5039 3.377a5.3895 5.3895 0 0 1-4.4453-2.1642zM143.5898 118.209c0 2.0928-1.6601 3.42-4.1425 3.42-2.4834 0-4.1426-1.3272-4.1426-3.42v-7.1172h1.9336v6.6113c0 1.2559.5342 2.0498 2.209 2.0498 1.6738 0 2.208-.7939 2.208-2.0498v-6.6113h1.9345zM146.8145 111.0918h4.2871c2.1797 0 3.4638 1.2988 3.4638 3.1035a2.8874 2.8874 0 0 1-2.0351 3.0322l2.2959 4.1416h-2.2373l-1.9932-3.7812h-1.8477v3.7812h-1.9335zm1.9335 4.793h2.1084a1.5266 1.5266 0 0 0 1.6885-1.545c0-.9384-.6347-1.5449-1.9775-1.5449h-1.8194zM160.3154 111.0918h2.253l3.4355 10.2773h-2.0215l-.5918-1.9921h-3.8974l-.5918 1.9921h-2.0205zm1.1407 1.877h-.0284l-1.415 4.705h2.8584zM168.6367 111.0918h1.7754l4.3164 7.3184h.0283v-7.3184h1.7608v10.2773h-1.7754l-4.3164-7.3173h-.0283v7.3173h-1.7608zM186.627 114.542a2.215 2.215 0 0 0-2.2657-1.9199c-2.0498 0-2.9013 1.8193-2.9013 3.6084 0 1.79.8515 3.6093 2.9013 3.6093a2.559 2.559 0 0 0 2.4825-2.079l1.7617.8085a4.2617 4.2617 0 0 1-4.2442 3.0596c-3.291 0-4.9218-2.496-4.9218-5.3984 0-2.9004 1.8476-5.3985 4.9218-5.3985a3.9414 3.9414 0 0 1 4.1289 3.2334zM191.3398 111.0918h7.2754v1.79h-5.3418v2.339h4.9082v1.703h-4.9082v2.6563h5.7168v1.789h-7.6504zM86.022 56.7861c-.211-.2788-.7349-.0517-.7349-.0517l-8.3403 3.0908a30.3064 30.3064 0 0 0-2.2437-4.4409l2.7027-7.372s.3374-.735.0283-.9142c-.3159-.186-.8203.3062-.8203.3062l-4.9087 4.023a21.0588 21.0588 0 0 0-6.7432-4.872 21.777 21.777 0 0 0-3.0068-1.0822l-1.522-5.833s-.1304-.583-.5249-.583c-.3882 0-.4932.5503-.4932.5503l-.976 5.1538a26.2722 26.2722 0 0 0-3.3033-.2129A23.6274 23.6274 0 0 0 45.376 46.52a20.9413 20.9413 0 0 0-3.4361 1.9531c-.1782.126-.3461.2613-.5219.3931-1.0122-2.6099-1.8101-4.7349-1.959-5.376a9.557 9.557 0 0 0 2.0322-3.625 6.1975 6.1975 0 0 0-.145-3.913 11.0903 11.0903 0 0 1-.8784-2.4927 1.5769 1.5769 0 0 1 .479-.996 1.1142 1.1142 0 0 0-1.0269-.9904 6.042 6.042 0 0 0-1.2251.0909c-.105-.1866-.31-.1519-.1557-.8189.2348-1.0078 2.167-1.4829 3.7451-2.0937a4.613 4.613 0 0 0 3.1889-4.5313 3.6692 3.6692 0 0 0-2.0639-3.4878 4.7595 4.7595 0 0 1-1.8882 1.962 3.481 3.481 0 0 1-2.2651.357 2.5841 2.5841 0 0 0-1.3291-2.7189 3.4018 3.4018 0 0 1-3.0088 1.2027c-1.6338-.0489-1.7388-.4336-4.0352-.4278-3.2666.006-5.9726 1.9717-6.3047 4.8682a6.5682 6.5682 0 0 0 1.0528 4.2768 10.8322 10.8322 0 0 0-1.5337 1.4956 1.2467 1.2467 0 0 0-1.6651-.1298 2.179 2.179 0 0 1 .0699 1.3872 18.2968 18.2968 0 0 0-1.4639 4.6611 5.8321 5.8321 0 0 0 3.1269 5.92 1.4462 1.4462 0 0 0-.1679 1.497 1.1565 1.1565 0 0 0 1.124.583 1.5398 1.5398 0 0 0-.2739 1.63c.2739.6791 1.0547 1.668 1.7348 1.668a12.288 12.288 0 0 0 .375 2.4808 2.5655 2.5655 0 0 0-.4419 1.5962 1.712 1.712 0 0 0 1.2569 1.668 4.3118 4.3118 0 0 0 .5381 1.1328 4.0022 4.0022 0 0 0 .9609.9438 3.1717 3.1717 0 0 0 1.771.6162 7.0083 7.0083 0 0 0 1.584-.0688c.0171.193.0791 1.9946.1572 3.9937a48.1893 48.1893 0 0 0-2.5635 16.2045v.004c0 10.6152 3.0274 20.0781 8.8072 26.17a5.8838 5.8838 0 0 0 1.2612 1.0096 65.9307 65.9307 0 0 1 4.56-6.6054 23.24 23.24 0 0 1 2.3741-2.584q2.0324-1.7652 3.9477-3.1514a33.0967 33.0967 0 0 1 11.4751-5.0596c-4.3618 2.254-6.8349 3.4551-10.935 6.9707a40.4734 40.4734 0 0 0-9.5621 11.5411 4.5377 4.5377 0 0 0 2.3169 1.041c.5982-.703 3.6753-6.3418 8.3912-10.875 9.5507-8.9434 20.8007-11.0098 26.6899-10.8965a56.1427 56.1427 0 0 0 .502-7.5645 51.993 51.993 0 0 0-1.336-12.0532l7.0322-7.8252s.4859-.4892.2779-.767" class="a4af221b-1c0d-41cb-9784-8eefc70a3ab0" transform="translate(-21.018 -20.2324)"/>
  <path d="M33.7266 53.25a5.3936 5.3936 0 0 0-2.417-.747 4.6277 4.6277 0 0 0-2.4141.683.8507.8507 0 0 1-.2041-1.0898c.1953-.477.4761-.5493.4761-.5493l-.2569-4.4517a11.9742 11.9742 0 0 1 1.5889-.993.6831.6831 0 0 0 .4961-.709 8.7152 8.7152 0 0 1 1.814 1.8378 3.6133 3.6133 0 0 1 .6801 1.938 11.8302 11.8302 0 0 1-.1049 2.4501c.2788.2388.5468.441.5786.8169a1.3404 1.3404 0 0 1-.2368.814M74.3521 67.1318a8.5606 8.5606 0 0 0-1.6709-3.729l10.5849-4.6919zM45.3198 49.5977l8.9571 8.126a6.4618 6.4618 0 0 0-2.5181 2.8642zM50.5625 65.6973a3.0478 3.0478 0 0 0-.521 1.3388 3.6549 3.6549 0 0 0 .043 1.377l-2.7461-1.8941a20.6912 20.6912 0 0 0-.1797-2.2446c-.0064-.057-.0254-.16-.0391-.2383z" class="70e469d9-24f4-4ad2-b225-1547af76d64b" transform="translate(-21.018 -20.2324)"/>
  <path d="M35.4272 66.4863c-.1728-.306-.956-16.8408-.9858-17.4209l.8848-.642v-.171a2.2502 2.2502 0 0 1-1.6328-.6508l-.2383-5.065a3.9981 3.9981 0 0 1-2.1387-.6885 1.3958 1.3958 0 0 1-.2749-1.8657 6.2182 6.2182 0 0 0 2.855.6822c.2388 0 .7358.5346 1.022.65.3266.124.8715.4266 1.1289.5418.2299.0992.375.6431.4409.8472.0679.207 8.2607 21.4678 8.397 21.707.1391.236.6152 3.8106.646 4.0806a25.0377 25.0377 0 0 0 1.498 3.4024 6.6012 6.6012 0 0 0-4.333 2.0258 14.2153 14.2153 0 0 0-2.9829 5.8745c-.1021-.745-4.1153-13.0024-4.2862-13.3076M45.8369 86.8281a20.7312 20.7312 0 0 1-2.3472 8.128c-.769 1.3095-2.9306 3.9501-3.684 4.9482.8173-1.6318 1.4492-5.5723 1.3969-8.6328-.0346-1.9883-.6396-6.3809-.1128-9.288a10.6733 10.6733 0 0 1 3.543-6.7999 6.5949 6.5949 0 0 1 6.3618-1.3882l2.5191 4.7407a5.7267 5.7267 0 0 0-4.3169.8838c-2.2368 1.7168-2.9878 4.0303-3.3599 7.4082" class="70e469d9-24f4-4ad2-b225-1547af76d64b" transform="translate(-21.018 -20.2324)"/>
  <path d="M46.084 93.2695a43.1923 43.1923 0 0 0 1.6431-6.623c.29-1.6875.561-4.1485 2.5688-5.8086a4.2018 4.2018 0 0 1 3.2593-.7285l2.8467 5.8047a1.7095 1.7095 0 0 0 1.6543.7929c-2.6724.8662-9.4034 4.0674-11.9722 6.5625M70.3242 74.7412a1.7928 1.7928 0 0 0-.041 1.8848c.2891.541 1.7979 3.3261 1.7979 3.3261a17.2087 17.2087 0 0 0 1.2968 2.7129c.8184 0 1.7022-.0205 2.6363 0-.9952-2.2285-3.272-6.54-3.272-6.54l-.1641-3.4849a8.7469 8.7469 0 0 0-2.2539 2.1011M58.1772 56.2734a10.6395 10.6395 0 0 1 4.4791.44l-2.5792-14.6167zM36.4883 42.7031c-.0659-.2041-.209-.748-.4409-.8471-.2574-.1167-.8023-.4209-1.1289-.5469-.2823-.1128-.7832-.645-1.022-.645a6.2291 6.2291 0 0 1-2.855-.6817 1.3974 1.3974 0 0 0 .2749 1.8667 3.998 3.998 0 0 0 2.1387.687l.2383 5.065a2.2272 2.2272 0 0 0 1.6328.6469v.1724l-.8848.645c.0298.5796.813 17.1158.9868 17.421.1699.3046 4.1831 12.5624 4.2852 13.3075a14.2273 14.2273 0 0 1 2.9829-5.8789 6.6173 6.6173 0 0 1 4.333-2.0219 24.9832 24.9832 0 0 1-1.498-3.4019c-.0308-.269-.5069-3.8452-.6451-4.081-.1357-.2388-8.33-21.5-8.3979-21.707" class="70e469d9-24f4-4ad2-b225-1547af76d64b" transform="translate(-21.018 -20.2324)"/>
  <path d="M31.2578 38.6484a5.2842 5.2842 0 0 1 3.9522 1.479 2.1505 2.1505 0 0 0-.7842-2.0639 5.1879 5.1879 0 0 0-3.2969-.9239 4.5699 4.5699 0 0 0-2.8662.9 1.9176 1.9176 0 0 0-.5898 2.0126c.2031-.6455 1.6757-1.4116 3.5849-1.4038M27.1143 26.5098a3.7685 3.7685 0 0 0 .5908 2.351c.2334.3062.7851.9058 1.1914.882.5786-.0348 1.1225-1.1422 2.4848-1.0909.8819.0351 1.459 1.2817 2.21 1.3261.5791.0386.8799-.54 1.4688-.602.5-.0532.6743.1968.9799.502a3.2419 3.2419 0 0 1 1.2603-1.359c.916-.683 4.0449-1.329 5.3769-2.519a2.5443 2.5443 0 0 0 .6031-2.438 4.692 4.692 0 0 1-3.2588 1.5176 8.2405 8.2405 0 0 1-2.8931-.5708 1.7264 1.7264 0 0 0 .146-1.6069 8.65 8.65 0 0 1-3.104.523c-.7471 0-2.209-.3023-3.3433-.2413a3.6634 3.6634 0 0 0-3.7128 3.3262" class="70e469d9-24f4-4ad2-b225-1547af76d64b" transform="translate(-21.018 -20.2324)"/>
  <path d="M31.3994 34.2334c5.376.103 7.8018 2.586 7.874 4.625a3.8156 3.8156 0 0 0 .1997-1.872c-.0278-.54-.8457-2.0748-.8828-2.582a4.3727 4.3727 0 0 1 .2051-1.3268c-.3408.065-1.5312.5396-2.041.1338-.5459-.438-.169-1.5302-.8853-1.7988-.7138-.2783-1.8349.5767-2.5527.4717-.7109-.103-1.3242-1.086-2.0708-1.086-.7534 0-1.1265.9161-2.0444 1.1221-.709.1602-1.5659-.269-1.9859-.2392-.4638.0332-.7397.395-.9458.8393a1.1323 1.1323 0 0 1-.9121.7607c-.4321.106-1.0552-.2709-1.3608-.2036a2.2632 2.2632 0 0 1 .1416 1.7686 8.5465 8.5465 0 0 0-.9238 2.355 3.4668 3.4668 0 0 0 .4082 1.7251c-.1372-2.891 3.0839-4.7818 7.7768-4.6929M28.0122 44.54a3.2332 3.2332 0 0 0-1.5371 1.319 3.4813 3.4813 0 0 0 .9849 1.6361 3.1944 3.1944 0 0 1 .8271-1.354 6.3839 6.3839 0 0 1 .9483-.541.5588.5588 0 0 0 .375-.5811 1.5291 1.5291 0 0 0-.1773-.7578c.27-.0322.7739.0098.9482-.2334a1.474 1.474 0 0 0 .251-.8447c0-.3101-.1401-.3779-.4424-.4111a12.4946 12.4946 0 0 0-1.6396-.021s.6851-.353.8911-.4527a.632.632 0 0 0 .3047-.4785 2.931 2.931 0 0 0-.0679-1.0176 7.7177 7.7177 0 0 0-3.3012 1.356l.374.9258-.6768-.0308a2.7816 2.7816 0 0 0 .169 1.5908 8.2374 8.2374 0 0 1 1.769-.104M72.0181 65.8574c-.126-.661-1.7823-2.639-4.6104-4.7778-2.2026-1.6782-5.437-3.3262-8.0957-3.3154-4.4922.0263-6.3472 3.1132-6.686 4.7231a5.447 5.447 0 0 0 .0498 2.603 2.8905 2.8905 0 0 0-1.1201 1.8042 1.912 1.912 0 0 0 .457 1.666 3.344 3.344 0 0 1 .7671-1.937 5.267 5.267 0 0 1 1.7041-1.1572l.102 1.229c-.582.335-1.3003 1.047-1.3481 1.4234l.0478 2.0258 1.5445-.9282.2998.6231-.564 3.5722.8682-.1543 1.583.648-1.5303 1.2881v.5097a.9117.9117 0 0 1 .7671-.2929 9.2085 9.2085 0 0 1 1.9331.6494l-.0522.3125h-2.7007c-.1021.3554.2148.6279.4189.7812a5.9043 5.9043 0 0 1 .9258-.286c.2041 0 .6753.124 1.084.1737l-.4898.6572a.9369.9369 0 0 1-.7163.0997c-.2548-.0538-.5068.3037-.5068.5957a6.828 6.828 0 0 0 .1958 1.0751c.25 1.1465 1.4263.918 1.5772.9043a24.1334 24.1334 0 0 0 3.1728-.9375l-2.3359 3.2715 1.02 3.503a57.2087 57.2087 0 0 1 11.144-3.0938c-.5439-.9023-.6338-1.2656-1.3027-2.6142l-2.5523-5.8687.356-.87a2.4279 2.4279 0 0 0 1.9922-.6608 6.8122 6.8122 0 0 0 1.479-1.785.8389.8389 0 0 0-.9712.0512c-.3037.2065-.541.5947-.9658.4057-.4663-.1992-.2373-.706-.188-1.165.0518-.456-.5313-.4649-.937-.1099a1.4844 1.4844 0 0 1-1.8379-.355 37.9894 37.9894 0 0 0-4.2344-3.369 7.353 7.353 0 0 0-4.645-.7569c-.8047.144-1.377.501-1.6826.3447l-1.0112-1.56.163-.1007c.355.153.6929.441 1.1538.2857a13.0952 13.0952 0 0 1 3.2671-.5078 16.01 16.01 0 0 1 5.6153 1.1748c.0488 1.3222 2.7177 3.0093 3.9267 3.1582a3.2077 3.2077 0 0 0 2.2451-.5073l-2.602-2.2876 1.3769-1.7442s2.1949 2.089 2.503 2.501a1.9037 1.9037 0 0 0-.0537-.918m-15.6631 2.653a8.9291 8.9291 0 0 1 2.1748-.8703c1.5561-.3349 3.2822.5992 4.5073 1.5625l-.2324.3687-1.7568.4131a2.4877 2.4877 0 0 0-1.6861-.4009 3.2387 3.2387 0 0 0-1.1201.256l.3452.56-.8061.203a3.5239 3.5239 0 0 0-1.4258-1.1733zm-2.6592-4.0299c-.458-1.541.769-3.0659 1.3311-3.624l.8627 1.9877a12.733 12.733 0 0 0-2.1938 1.6363m8.0659-1.7339c-.8179-.5674-3.52-.4634-4.645-.206l-.8149-2.353a5.2866 5.2866 0 0 1 2.8559-.7652 7.297 7.297 0 0 1 3.062.667zm5.3071 2.4048a25.735 25.735 0 0 0-3.978-2.002l.9649-2.5a36.1342 36.1342 0 0 1 4.2881 2.707zM66.7212 58.504a20.1404 20.1404 0 0 1 3.6548 2.5678L75.7852 49.54z" class="70e469d9-24f4-4ad2-b225-1547af76d64b" transform="translate(-21.018 -20.2324)"/>
</svg>