<svg xmlns="http://www.w3.org/2000/svg" viewBox="0 0 411.216 88.756" aria-labelledby="logo-title" role="img">
    <title id="logo-title">Purdue Alumni Association</title>
    <path d="M187.74 18.153v21.982h32.16l7.367-6.635v-8.488l-7.346-6.819-32.18-.04zM155.422 0h74.815l18.072 18.153v21.982l-18.072 17.93-42.537.103v13.92h11.38v16.668l-43.658-.02V72.13h11.682V18.153l-11.682.04V0z" fill-rule="evenodd" clip-rule="evenodd" fill="#c28e0e"/>
    <path d="M9.887 32.565c2.797 0 4.924.448 6.417 1.492 1.604 1.12 2.536 2.76 2.536 5.26 0 4.739-3.768 7.163-7.386 7.611-.598.075-1.269.075-1.717.075l-2.5-.672v4.888c0 4.029.3 4.327 3.731 4.551v1.045H0V55.77c2.835-.225 3.134-.523 3.134-4.552V38.16c0-4.03-.299-4.327-2.985-4.552v-1.044h9.738zm-2.65 12.312c.597.223 1.306.447 2.277.447 1.567 0 4.775-1.044 4.775-5.969 0-3.843-2.09-5.373-5.223-5.373-1.791 0-1.828.224-1.828 1.344v9.55zM29.208 32.565v1.044c-2.76.224-3.06.448-3.06 4.477v7.872c0 5.932 1.94 9.253 6.343 9.253 4.514 0 6.753-3.433 6.753-9.961V43.01c0-4.253-.187-6.342-.336-7.462-.187-1.342-1.231-1.79-3.619-1.94v-1.044h9.103v1.044c-1.865.075-2.835.597-3.022 1.94-.149 1.12-.335 3.209-.335 7.462v2.65c0 3.618-.672 6.715-2.724 8.916-1.642 1.79-4.29 2.798-6.902 2.798-2.313 0-4.775-.448-6.641-1.977-1.977-1.605-2.798-4.291-2.798-8.693v-8.619c0-4.029-.298-4.252-3.283-4.477v-1.044h10.521zM56.213 32.565c2.723 0 4.663.298 6.156 1.269 1.455.97 2.462 2.536 2.462 4.737 0 3.134-1.94 5.335-4.962 6.455.597 1.044 2.052 3.656 3.246 5.335 1.418 2.052 2.387 3.395 3.096 4.141.896.895 1.493 1.455 2.575 1.716l-.15.97-1.566-.075c-4.067-.298-5.336-1.343-6.79-3.432-1.194-1.716-2.425-4.104-3.508-6.044-.596-1.044-1.044-1.417-2.163-1.417h-1.194v4.999c0 4.029.298 4.327 3.134 4.552v1.044H46.028V55.77c2.985-.225 3.283-.523 3.283-4.552V38.16c0-4.03-.298-4.327-3.134-4.552v-1.044h10.036zM53.415 44.95h1.417c1.493 0 2.538-.224 3.507-.97 1.493-1.194 2.015-2.984 2.015-4.775 0-3.88-2.686-5.224-5.074-5.224-1.79 0-1.865.15-1.865 1.344v9.625zM81.055 32.565c4.178 0 7.983.895 10.446 3.283 1.716 1.716 3.134 4.477 3.134 7.76 0 9.178-7.089 13.207-15.819 13.207h-9.14V55.77c3.06-.225 3.358-.523 3.358-4.552V38.16c0-4.03-.299-4.327-3.06-4.552v-1.044h11.081zm-3.843 18.579c0 3.433.373 4.141 3.246 4.141 6.193 0 9.401-4.365 9.401-10.558 0-7.984-4.028-10.745-9.998-10.745-1.231 0-2.2.15-2.425.336-.224.187-.224.858-.224 1.828v14.998zM105.375 32.565v1.044c-2.76.224-3.06.448-3.06 4.477v7.872c0 5.932 1.94 9.253 6.343 9.253 4.514 0 6.753-3.433 6.753-9.961V43.01c0-4.253-.187-6.342-.336-7.462-.187-1.342-1.231-1.79-3.619-1.94v-1.044h9.103v1.044c-1.865.075-2.835.597-3.022 1.94-.149 1.12-.335 3.209-.335 7.462v2.65c0 3.618-.672 6.715-2.724 8.916-1.642 1.79-4.29 2.798-6.902 2.798-2.313 0-4.775-.448-6.641-1.977-1.977-1.605-2.798-4.291-2.798-8.693v-8.619c0-4.029-.298-4.252-3.283-4.477v-1.044h10.521zM139.207 32.565c.075.597.224 3.357.448 5.67l-1.12.075c-.372-1.79-.82-2.835-1.38-3.395-.634-.634-1.828-.858-4.14-.858h-1.866c-1.418 0-1.492 0-1.492 1.343v7.91h3.208c3.209 0 3.283-.225 3.656-3.097h1.194v7.91h-1.194c-.373-2.948-.447-3.097-3.656-3.097h-3.208v6.118c0 2.164.149 3.208.82 3.693.672.448 2.015.486 3.582.486 1.865 0 3.582-.15 4.365-1.082.634-.71 1.268-1.978 1.903-3.768l1.119.223c-.15 1.269-.97 5.074-1.269 6.119h-18.206V55.77c3.209-.224 3.507-.522 3.507-4.551V38.16c0-4.03-.298-4.327-3.134-4.552v-1.044h16.863zM272.896 32.117l2.575 6.94c1.678 4.55 3.32 9.177 4.737 12.908 1.27 3.32 1.791 3.581 3.955 3.805v1.045h-9.811V55.77l1.044-.15c1.418-.224 1.492-.597 1.044-2.015-.373-1.119-1.268-3.432-2.051-5.372h-6.902c-.485 1.12-1.157 3.209-1.68 4.776-.671 1.977-.373 2.462 1.27 2.648l1.044.112v1.045h-8.282V55.77c2.312-.298 2.722-.447 4.03-3.805l7.534-19.4 1.493-.448zm-4.999 14.401h5.932l-2.91-8.208h-.111l-2.91 8.208zM296.134 32.565v1.044c-2.985.224-3.283.523-3.283 4.552v12.983c0 2.164.224 3.208.858 3.656.634.448 1.865.523 3.06.523 1.715 0 3.506-.15 4.29-1.082.633-.71 1.231-1.978 1.828-3.768l1.194.223c-.225 1.194-1.045 5-1.344 6.119H285.24V55.77c3.134-.225 3.433-.523 3.433-4.552V38.16c0-4.03-.299-4.327-3.283-4.552v-1.044h10.744zM314.003 32.565v1.044c-2.76.224-3.059.448-3.059 4.477v7.872c0 5.932 1.94 9.253 6.342 9.253 4.515 0 6.753-3.433 6.753-9.961V43.01c0-4.253-.187-6.342-.336-7.462-.186-1.342-1.231-1.79-3.618-1.94v-1.044h9.103v1.044c-1.866.075-2.836.597-3.023 1.94-.148 1.12-.335 3.209-.335 7.462v2.65c0 3.618-.672 6.715-2.724 8.916-1.641 1.79-4.29 2.798-6.902 2.798-2.312 0-4.775-.448-6.64-1.977-1.977-1.605-2.798-4.291-2.798-8.693v-8.619c0-4.029-.298-4.252-3.284-4.477v-1.044h10.52zM337.986 32.565l8.245 17.796 7.797-17.796h7.052v1.044c-3.022.3-3.17.448-3.097 4.552l.373 13.058c.112 4.178.225 4.253 3.246 4.551v1.045h-10.409V55.77c2.91-.3 3.023-.374 2.986-4.552l-.15-14.326h-.15l-8.468 19.474h-1.119l-8.17-18.728h-.15l-.261 9.662c-.075 3.358-.038 5.41.112 6.53.149 1.417.932 1.715 3.395 1.94v1.044h-8.842V55.77c1.865-.15 2.611-.523 2.873-1.94.185-1.12.484-3.321.67-6.903l.412-7.685c.26-4.962 0-5.335-3.209-5.634v-1.044h6.864zM369.355 32.565L384.241 50.1h.074V43.01c0-4.253-.185-6.342-.336-7.462-.185-1.342-1.23-1.79-3.618-1.94v-1.044h9.103v1.044c-1.865.075-2.835.597-3.022 1.94-.148 1.12-.336 3.209-.336 7.462v14.102h-1.715L369.019 38.31h-.074v8.059c0 4.253.187 6.342.335 7.462.188 1.342 1.233 1.79 3.62 1.94v1.044h-9.103V55.77c1.865-.075 2.835-.598 3.021-1.94.15-1.12.336-3.209.336-7.462v-7.312c0-4.328-.821-5.223-3.88-5.448v-1.044h6.081zM401.995 32.565v1.044c-2.836.224-3.135.523-3.135 4.552V51.22c0 4.029.3 4.327 3.135 4.551v1.045h-10.521V55.77c2.91-.225 3.209-.523 3.209-4.552V38.16c0-4.03-.3-4.327-3.21-4.552v-1.044h10.522z"/>
    <path d="M407.423 63.627v.491h-.948v2.474h-.588v-2.474h-.938v-.491h2.474zm3.204 2.965l-.11-1.745c-.01-.228-.01-.512-.02-.827h-.033c-.076.26-.175.609-.251.881l-.534 1.647h-.61l-.535-1.69c-.055-.218-.14-.578-.206-.838h-.033c0 .272-.012.555-.022.827l-.109 1.745h-.566l.217-2.965h.883l.512 1.45c.077.228.12.446.197.751h.01c.076-.26.142-.523.207-.73l.513-1.471h.85l.229 2.965h-.59z"/>
    <rect x=".28" y="22.2" width="140.708" height="2.015"/>
    <rect x=".28" y="64.553" width="140.708" height="2.015"/>
    <rect x="263.112" y="22.2" width="140.708" height="2.015"/>
    <rect x="263.112" y="64.553" width="140.708" height="2.015"/>
</svg>