<svg xmlns="http://www.w3.org/2000/svg" viewBox="0 0 367.166 127.1519">
  <title>Purdue Federal Credit Union</title>
  <defs>
    <style>
      .\32 cf5c8e1-4024-43b7-a9ff-3e32b8cb008b{fill:#fdb913}.b720c33a-6c95-4af4-a090-028a1297ef20{fill:#231f20}
    </style>
  </defs>
  <path d="M0 64.795V52.446l86.207-12.887v14.568L0 64.795zM11.021 43.63l17.512-10.162L86.207 22.89v8.446L11.021 43.63zM42.433 25.402l16.198-9.399 27.576-5.344v6.277l-43.774 8.466zM68.292 10.396L86.207 0v6.751l-17.915 3.645z" class="2cf5c8e1-4024-43b7-a9ff-3e32b8cb008b"/>
  <path d="M86.207 6.751V0l17.979 10.119-17.979-3.368zM86.207 16.936l-.012-6.278 26.771 4.403 16.089 9.054-42.848-7.179zM86.207 31.336V22.89l55.152 8.151 18.63 10.485-73.782-10.19zM86.207 39.559l82.023 8.806v14.484l-82.023-8.722V39.559z" class="b720c33a-6c95-4af4-a090-028a1297ef20"/>
  <path d="M6.4947 82.4775h12.2217a9.0187 9.0187 0 0 1 6.6103 2.4121 7.7449 7.7449 0 0 1 2.4522 5.709 7.986 7.986 0 0 1-2.4229 5.8457 8.9017 8.9017 0 0 1-6.6006 2.4336h-5.4346v11.0039h-6.826zm6.8261 5.0215v6.3555h3.1788q4.2567 0 4.2568-3.1778a2.6696 2.6696 0 0 0-1.1377-2.4804 7.8807 7.8807 0 0 0-3.8848-.6973zM51.2818 82.4775h6.8271v15.5566q0 6.003-3.5508 9.1016-3.5507 3.0996-10.1425 3.0996-6.5127 0-10.1123-3.1387-3.6006-3.1377-3.5996-9.0234V82.4775h6.8466v15.752a5.9393 5.9393 0 0 0 1.8731 4.5898 6.9587 6.9587 0 0 0 4.914 1.7266 7.108 7.108 0 0 0 5.0518-1.7657 6.5266 6.5266 0 0 0 1.8926-5.0214zM63.23 82.4775h12.2412a9.1616 9.1616 0 0 1 6.4737 2.3027 7.318 7.318 0 0 1 2.4912 5.5782q0 4.5293-4.708 6.7031 2.0638.9404 3.9228 5.0566 1.859 4.1192 3.5908 7.7637h-7.4912q-.6708-1.3534-2.3379-5.1582a15.909 15.909 0 0 0-2.8535-4.8848 3.7287 3.7287 0 0 0-2.541-1.08h-1.9609v11.123H63.23zm6.8272 5.0215v6.2383h3.6093a4.2381 4.2381 0 0 0 2.7364-.8145 2.811 2.811 0 0 0 1.0107-2.3242q0-3.0996-3.9043-3.0996zM90.3804 82.4775h12.084q7.0034 0 11.0742 3.834a13.0143 13.0143 0 0 1 4.0703 9.918q0 6.375-4.1289 10.0136-4.1308 3.6387-11.7803 3.6387H90.3804zm6.8262 5.0215v17.3613h4.4531q4.3359 0 6.6309-2.3828a9.8184 9.8184 0 0 0-.0293-12.6543q-2.3247-2.3232-6.6797-2.3242zM142.1509 82.4775h6.8272v15.5566q0 6.003-3.5508 9.1016-3.5508 3.0996-10.1426 3.0996-6.5127 0-10.1123-3.1387-3.6006-3.1377-3.5996-9.0234V82.4775h6.8467v15.752a5.9392 5.9392 0 0 0 1.873 4.5898 6.9588 6.9588 0 0 0 4.9141 1.7266 7.1077 7.1077 0 0 0 5.0517-1.7657 6.5262 6.5262 0 0 0 1.8926-5.0214zM174.3833 104.8603v5.0215h-20.206V82.4775h19.9307v5.0215h-13.1036v5.748h12.4961v5.0215h-12.4961v6.5918zM209.6343 82.4775v5.0215h-12.0449v6.1211h12.0449v5.0215h-12.0449v11.2402h-6.8262V82.4775zM233.3052 104.8603v5.0215h-20.206V82.4775h19.9316v5.0215h-13.1045v5.748h12.4961v5.0215h-12.4961v6.5918zM238.4839 82.4775h12.084q7.0049 0 11.0742 3.834a13.0143 13.0143 0 0 1 4.0703 9.918q0 6.375-4.1289 10.0136-4.1308 3.6387-11.7802 3.6387h-11.3194zm6.8262 5.0215v17.3613h4.4531q4.336 0 6.631-2.3828a9.8184 9.8184 0 0 0-.0294-12.6543q-2.3232-2.3232-6.6797-2.3242zM290.2164 104.8603v5.0215h-20.2071V82.4775h19.9317v5.0215h-13.1036v5.748h12.4961v5.0215h-12.4961v6.5918zM294.6304 82.4775h12.2412a9.1615 9.1615 0 0 1 6.4737 2.3027 7.3215 7.3215 0 0 1 2.4912 5.5782q0 4.5293-4.708 6.7031 2.0638.9404 3.9228 5.0566 1.859 4.1192 3.5908 7.7637H311.15q-.6708-1.3534-2.3369-5.1582a15.909 15.909 0 0 0-2.8535-4.8848 3.7306 3.7306 0 0 0-2.541-1.08h-1.9619v11.123h-6.8262zm6.8262 5.0215v6.2383h3.6103a4.2381 4.2381 0 0 0 2.7364-.8145 2.8131 2.8131 0 0 0 1.0097-2.3242q0-3.0996-3.9033-3.0996zM337.857 82.4775l12.1719 27.4043h-7.3409l-2.2578-5.4141h-12.2724l-2.0469 5.4141h-7.2334l11.0693-27.4043zm.5771 17.2031l-4.4424-10.6523-4.0253 10.6523zM373.2769 104.8603v5.0215h-20.8926V82.4775h6.8262v22.3828zM202.9634 129.3662v2.1445a10.1685 10.1685 0 0 1-4.9482 1.168 7.6163 7.6163 0 0 1-3.8672-.916 6.7337 6.7337 0 0 1-2.5137-2.5235 6.8442 6.8442 0 0 1-.9258-3.4765 6.646 6.646 0 0 1 2.1192-4.9981 7.275 7.275 0 0 1 5.2265-2.0254 12.2784 12.2784 0 0 1 4.7637 1.1192v2.0957a9.3675 9.3675 0 0 0-4.666-1.3633 5.3933 5.3933 0 0 0-3.8828 1.4746 4.9026 4.9026 0 0 0-1.543 3.6973 4.849 4.849 0 0 0 1.5195 3.6816 5.4187 5.4187 0 0 0 3.8868 1.4414 8.8112 8.8112 0 0 0 4.831-1.5195zM209.4078 132.5224V118.915h3.4101a4.9198 4.9198 0 0 1 3.2774 1.0215 3.433 3.433 0 0 1 1.2128 2.7676 3.406 3.406 0 0 1-2.2988 3.3515 5.955 5.955 0 0 1 1.2764 1.168 23.551 23.551 0 0 1 1.7529 2.582q.7119 1.1573 1.1406 1.7422l.7207.9746h-2.3183l-.5938-.8965a2.673 2.673 0 0 0-.1172-.166l-.3789-.5351-.6035-.9942-.6523-1.0625a10.4082 10.4082 0 0 0-1.1055-1.334 4.2362 4.2362 0 0 0-.9062-.7148 3.0502 3.0502 0 0 0-1.3604-.2188h-.5068v5.9219zm2.5332-11.9511h-.584v4.2949h.7402a5.4742 5.4742 0 0 0 2.0313-.254 1.903 1.903 0 0 0 .8564-.7636 2.224 2.224 0 0 0 .3076-1.1641 2.0764 2.0764 0 0 0-.3418-1.164 1.8185 1.8185 0 0 0-.959-.7364 6.9424 6.9424 0 0 0-2.0507-.2128zM225.3902 118.915h7.7148v1.7324h-5.7676v4.1504h5.5723v1.7442h-5.5723v4.2265h5.9532v1.7344h-7.9004zM239.3746 132.5029V118.915h4.5878a9.6896 9.6896 0 0 1 4.3936.832 6.2906 6.2906 0 0 1 2.5713 2.4493 6.8123 6.8123 0 0 1 .9551 3.5273 6.7067 6.7067 0 0 1-4.335 6.2734 6.8668 6.8668 0 0 1-1.4121.4043 18.9097 18.9097 0 0 1-2.4551.1016zm4.3837-11.8555h-2.4355v10.1211h2.4932a10.0011 10.0011 0 0 0 2.2705-.1992 5.2836 5.2836 0 0 0 1.3486-.5059 4.617 4.617 0 0 0 .9893-.7558 5.0362 5.0362 0 0 0 1.4423-3.6914 4.7236 4.7236 0 0 0-2.7334-4.422 5.2734 5.2734 0 0 0-1.3388-.4394 13.7782 13.7782 0 0 0-2.0362-.1074zM258.3277 118.915h1.9472v13.6074h-1.9472zM266.1265 118.8955h11.3672v1.7324h-4.7441v11.8945h-1.9571v-11.8945h-4.666zM302.3267 118.915h1.958v7.7246a9.1483 9.1483 0 0 1-.2295 2.3672 5.1834 5.1834 0 0 1-.5644 1.3301 4.2233 4.2233 0 0 1-.8233.9492 7.1927 7.1927 0 0 1-8.4941.0098 4.4048 4.4048 0 0 1-.8233-.959 5.0146 5.0146 0 0 1-.5556-1.3008 9.6616 9.6616 0 0 1-.2188-2.416v-7.7051h1.958v7.7246a5.7142 5.7142 0 0 0 .4385 2.668 3.1118 3.1118 0 0 0 1.334 1.2031 4.6257 4.6257 0 0 0 2.1143.4531 4.268 4.268 0 0 0 2.8251-.9062 2.8058 2.8058 0 0 0 .8282-1.1485 7.1056 7.1056 0 0 0 .2529-2.2695zM321.7847 118.915h1.8516v13.6074h-1.6758l-9.0986-10.4804v10.4804h-1.8311V118.915h1.5781l9.1758 10.5684zM330.5581 118.915h1.9483v13.6074h-1.9483zM346.1939 118.7197a7.3215 7.3215 0 0 1 5.2519 1.9961 6.6283 6.6283 0 0 1 2.0977 5.0078 6.5156 6.5156 0 0 1-2.1172 4.9824 7.5291 7.5291 0 0 1-5.3398 1.9727 7.0988 7.0988 0 0 1-5.125-1.9727 6.575 6.575 0 0 1-2.0489-4.9433 6.7257 6.7257 0 0 1 2.0635-5.0469 7.2037 7.2037 0 0 1 5.2178-1.9961zm.0781 1.8516a5.2802 5.2802 0 0 0-3.8398 1.4609 4.9745 4.9745 0 0 0-1.503 3.7305 4.887 4.887 0 0 0 1.508 3.6621 5.6016 5.6016 0 0 0 7.577-.0293 4.9812 4.9812 0 0 0 1.5225-3.711 4.8698 4.8698 0 0 0-1.5225-3.6386 5.169 5.169 0 0 0-3.7422-1.4746zM370.7427 118.915h1.8516v13.6074h-1.6758l-9.0986-10.4804v10.4804h-1.8311V118.915h1.5781l9.1758 10.5684z" class="b720c33a-6c95-4af4-a090-028a1297ef20" transform="translate(-6.111 -5.5268)"/>
</svg>